<svg width="116" height="28" viewBox="0 0 116 28" fill="none" xmlns="http://www.w3.org/2000/svg">
<path d="M95.8709 13.3616C95.004 17.9522 90.29 17.5548 90.29 23C84.6008 21.8351 82 16.2755 82 13.3616C82 8.24501 85.5857 4.18905 90.29 5.13869C94.137 5.91527 96.605 9.47421 95.8709 13.3616Z" fill="#19334A"/>
<g filter="url(#filter0_d)">
<path d="M12.634 20.3077H7.72L7.426 16.9687H3.541L2.05 20.3077H0.013L6.208 6.97268H11.185L12.634 20.3077ZM4.234 15.4357H7.279L6.796 9.72368L4.234 15.4357ZM21.7428 10.8367C21.7848 10.6267 21.8058 10.3397 21.8058 9.97568C21.8058 9.76568 21.7918 9.56268 21.7638 9.36668C21.7358 9.15668 21.6868 8.97468 21.6168 8.82068C21.5468 8.65268 21.4418 8.52668 21.3018 8.44268C21.1618 8.34468 20.9798 8.29568 20.7558 8.29568C20.5038 8.29568 20.2728 8.35168 20.0628 8.46368C19.8528 8.57568 19.6638 8.72268 19.4958 8.90468C19.3418 9.07268 19.2158 9.27568 19.1178 9.51368C19.0338 9.73768 18.9918 9.97568 18.9918 10.2277C18.9918 10.5917 19.0828 10.8717 19.2648 11.0677C19.4608 11.2637 19.7128 11.4247 20.0208 11.5507C20.3288 11.6767 20.6788 11.7817 21.0708 11.8657C21.4628 11.9497 21.8688 12.0477 22.2888 12.1597C22.6388 12.2577 22.9888 12.3837 23.3388 12.5377C23.6888 12.6917 23.9968 12.9017 24.2627 13.1677C24.5428 13.4197 24.7668 13.7557 24.9348 14.1757C25.1028 14.5817 25.1868 15.0927 25.1868 15.7087C25.1868 16.5907 25.0118 17.3327 24.6618 17.9347C24.3118 18.5367 23.8288 19.0267 23.2128 19.4047C22.5968 19.7827 21.8618 20.0557 21.0078 20.2237C20.1678 20.3917 19.2508 20.4757 18.2568 20.4757C17.2488 20.4757 16.4228 20.4127 15.7788 20.2867C15.1488 20.1467 14.6518 19.9997 14.2878 19.8457C13.8538 19.6637 13.5318 19.4537 13.3217 19.2157L14.0358 16.3387H17.7318C17.7178 16.4647 17.7038 16.6397 17.6898 16.8637C17.6758 17.0737 17.6688 17.2417 17.6688 17.3677C17.6688 17.5357 17.6898 17.7107 17.7318 17.8927C17.7738 18.0747 17.8368 18.2427 17.9208 18.3967C18.0188 18.5507 18.1518 18.6767 18.3198 18.7747C18.4878 18.8727 18.6978 18.9217 18.9498 18.9217C19.2298 18.9217 19.4748 18.8587 19.6848 18.7327C19.9088 18.6067 20.0908 18.4527 20.2308 18.2707C20.3848 18.0747 20.4968 17.8647 20.5668 17.6407C20.6508 17.4027 20.6928 17.1717 20.6928 16.9477C20.6928 16.6397 20.6158 16.3807 20.4618 16.1707C20.3218 15.9607 20.1258 15.7857 19.8738 15.6457C19.6218 15.4917 19.3278 15.3657 18.9918 15.2677C18.6698 15.1557 18.3338 15.0437 17.9838 14.9317C17.6478 14.8337 17.2908 14.7147 16.9128 14.5747C16.5488 14.4347 16.2128 14.2387 15.9048 13.9867C15.5968 13.7347 15.3378 13.4197 15.1278 13.0417C14.9318 12.6497 14.8338 12.1527 14.8338 11.5507C14.8338 10.6547 15.0578 9.90568 15.5058 9.30368C15.9678 8.68768 16.5418 8.19068 17.2278 7.81268C17.9278 7.43468 18.6908 7.16868 19.5168 7.01468C20.3428 6.84668 21.1268 6.76268 21.8688 6.76268C22.8488 6.76268 23.6888 6.88168 24.3888 7.11968C25.1028 7.34368 25.6418 7.60968 26.0058 7.91768L25.2288 10.8367H21.7428ZM31.4009 15.5407C31.3309 15.8487 31.2749 16.1147 31.2329 16.3387C31.1909 16.5627 31.1699 16.7727 31.1699 16.9687C31.1699 17.4587 31.3379 17.8507 31.6739 18.1447C32.0239 18.4387 32.5349 18.5857 33.2069 18.5857C33.6969 18.5857 34.0959 18.5017 34.4039 18.3337C34.7259 18.1657 34.9849 17.9417 35.1809 17.6617C35.3909 17.3817 35.5519 17.0597 35.6639 16.6957C35.7899 16.3317 35.8949 15.9467 35.9789 15.5407L37.7639 6.97268H39.6749L37.8479 15.5827C37.7079 16.2547 37.5049 16.8847 37.2389 17.4727C36.9729 18.0607 36.5879 18.5787 36.0839 19.0267C35.5939 19.4747 34.9569 19.8317 34.1729 20.0977C33.3889 20.3497 32.4159 20.4757 31.2539 20.4757C29.6439 20.4757 28.4539 20.2167 27.6839 19.6987C26.9139 19.1667 26.5289 18.3547 26.5289 17.2627C26.5289 16.7727 26.5919 16.1497 26.7179 15.3937C26.8439 14.6377 27.0049 13.8187 27.2009 12.9367L28.4819 6.97268H33.2489L31.4009 15.5407ZM47.2955 10.8367C47.3375 10.6267 47.3585 10.3397 47.3585 9.97568C47.3585 9.76568 47.3445 9.56268 47.3165 9.36668C47.2885 9.15668 47.2395 8.97468 47.1695 8.82068C47.0995 8.65268 46.9945 8.52668 46.8545 8.44268C46.7145 8.34468 46.5325 8.29568 46.3085 8.29568C46.0565 8.29568 45.8255 8.35168 45.6155 8.46368C45.4055 8.57568 45.2165 8.72268 45.0485 8.90468C44.8945 9.07268 44.7685 9.27568 44.6705 9.51368C44.5865 9.73768 44.5445 9.97568 44.5445 10.2277C44.5445 10.5917 44.6355 10.8717 44.8175 11.0677C45.0135 11.2637 45.2655 11.4247 45.5735 11.5507C45.8815 11.6767 46.2315 11.7817 46.6235 11.8657C47.0155 11.9497 47.4215 12.0477 47.8415 12.1597C48.1915 12.2577 48.5415 12.3837 48.8915 12.5377C49.2415 12.6917 49.5495 12.9017 49.8155 13.1677C50.0955 13.4197 50.3195 13.7557 50.4875 14.1757C50.6555 14.5817 50.7395 15.0927 50.7395 15.7087C50.7395 16.5907 50.5645 17.3327 50.2145 17.9347C49.8645 18.5367 49.3815 19.0267 48.7655 19.4047C48.1495 19.7827 47.4145 20.0557 46.5605 20.2237C45.7205 20.3917 44.8035 20.4757 43.8095 20.4757C42.8015 20.4757 41.9755 20.4127 41.3315 20.2867C40.7015 20.1467 40.2045 19.9997 39.8405 19.8457C39.4065 19.6637 39.0845 19.4537 38.8745 19.2157L39.5885 16.3387H43.2845C43.2705 16.4647 43.2565 16.6397 43.2425 16.8637C43.2285 17.0737 43.2215 17.2417 43.2215 17.3677C43.2215 17.5357 43.2425 17.7107 43.2845 17.8927C43.3265 18.0747 43.3895 18.2427 43.4735 18.3967C43.5715 18.5507 43.7045 18.6767 43.8725 18.7747C44.0405 18.8727 44.2505 18.9217 44.5025 18.9217C44.7825 18.9217 45.0275 18.8587 45.2375 18.7327C45.4615 18.6067 45.6435 18.4527 45.7835 18.2707C45.9375 18.0747 46.0495 17.8647 46.1195 17.6407C46.2035 17.4027 46.2455 17.1717 46.2455 16.9477C46.2455 16.6397 46.1685 16.3807 46.0145 16.1707C45.8745 15.9607 45.6785 15.7857 45.4265 15.6457C45.1745 15.4917 44.8805 15.3657 44.5445 15.2677C44.2225 15.1557 43.8865 15.0437 43.5365 14.9317C43.2005 14.8337 42.8435 14.7147 42.4655 14.5747C42.1015 14.4347 41.7655 14.2387 41.4575 13.9867C41.1495 13.7347 40.8905 13.4197 40.6805 13.0417C40.4845 12.6497 40.3865 12.1527 40.3865 11.5507C40.3865 10.6547 40.6105 9.90568 41.0585 9.30368C41.5205 8.68768 42.0945 8.19068 42.7805 7.81268C43.4805 7.43468 44.2435 7.16868 45.0695 7.01468C45.8955 6.84668 46.6795 6.76268 47.4215 6.76268C48.4015 6.76268 49.2415 6.88168 49.9415 7.11968C50.6555 7.34368 51.1945 7.60968 51.5585 7.91768L50.7815 10.8367H47.2955ZM62.9807 20.3077H58.0667L57.7727 16.9687H53.8877L52.3967 20.3077H50.3597L56.5547 6.97268H61.5317L62.9807 20.3077ZM54.5807 15.4357H57.6257L57.1427 9.72368L54.5807 15.4357ZM70.7205 14.5537C71.1405 14.5537 71.4905 14.3787 71.7705 14.0287C72.0645 13.6787 72.3025 13.2517 72.4845 12.7477C72.6805 12.2437 72.8205 11.7187 72.9045 11.1727C72.9885 10.6267 73.0305 10.1507 73.0305 9.74468C73.0305 9.36668 72.9675 9.05168 72.8415 8.79968C72.7155 8.53368 72.4425 8.40068 72.0225 8.40068H71.0775L69.7545 14.5537H70.7205ZM69.4605 15.8977L68.5155 20.3077H63.9795L66.8145 6.97268H71.6655C72.4635 6.97268 73.1915 7.01468 73.8495 7.09868C74.5075 7.18268 75.0745 7.35068 75.5505 7.60268C76.0265 7.85468 76.3975 8.21868 76.6635 8.69468C76.9295 9.15668 77.0625 9.77968 77.0625 10.5637C77.0625 11.2917 76.9435 11.9847 76.7055 12.6427C76.4815 13.2867 76.1105 13.8537 75.5925 14.3437C75.0885 14.8197 74.4305 15.1977 73.6185 15.4777C72.8065 15.7577 71.8195 15.8977 70.6575 15.8977H69.4605Z" fill="#25425C"/>
</g>
<defs>
<filter id="filter0_d" x="0.0130005" y="6.7627" width="79.0495" height="16.713" filterUnits="userSpaceOnUse" color-interpolation-filters="sRGB">
<feFlood flood-opacity="0" result="BackgroundImageFix"/>
<feColorMatrix in="SourceAlpha" type="matrix" values="0 0 0 0 0 0 0 0 0 0 0 0 0 0 0 0 0 0 127 0"/>
<feOffset dx="1" dy="2"/>
<feGaussianBlur stdDeviation="0.5"/>
<feColorMatrix type="matrix" values="0 0 0 0 0 0 0 0 0 0 0 0 0 0 0 0 0 0 0.25 0"/>
<feBlend mode="normal" in2="BackgroundImageFix" result="effect1_dropShadow"/>
<feBlend mode="normal" in="SourceGraphic" in2="effect1_dropShadow" result="shape"/>
</filter>
</defs>
</svg>
