<svg width="80" height="18" viewBox="0 0 80 18" fill="none" xmlns="http://www.w3.org/2000/svg">
<g filter="url(#filter0_d)">
<path d="M12.634 14H7.72L7.426 10.661H3.541L2.05 14H0.013L6.208 0.664999H11.185L12.634 14ZM4.234 9.128H7.279L6.796 3.416L4.234 9.128ZM21.7428 4.529C21.7848 4.319 21.8058 4.032 21.8058 3.668C21.8058 3.458 21.7918 3.255 21.7638 3.059C21.7358 2.849 21.6868 2.667 21.6168 2.513C21.5468 2.345 21.4418 2.219 21.3018 2.135C21.1618 2.037 20.9798 1.988 20.7558 1.988C20.5038 1.988 20.2728 2.044 20.0628 2.156C19.8528 2.268 19.6638 2.415 19.4958 2.597C19.3418 2.765 19.2158 2.968 19.1178 3.206C19.0338 3.43 18.9918 3.668 18.9918 3.92C18.9918 4.284 19.0828 4.564 19.2648 4.76C19.4608 4.956 19.7128 5.117 20.0208 5.243C20.3288 5.369 20.6788 5.474 21.0708 5.558C21.4628 5.642 21.8688 5.74 22.2888 5.852C22.6388 5.95 22.9888 6.076 23.3388 6.23C23.6888 6.384 23.9968 6.594 24.2627 6.86C24.5428 7.112 24.7668 7.448 24.9348 7.868C25.1028 8.274 25.1868 8.785 25.1868 9.401C25.1868 10.283 25.0118 11.025 24.6618 11.627C24.3118 12.229 23.8288 12.719 23.2128 13.097C22.5968 13.475 21.8618 13.748 21.0078 13.916C20.1678 14.084 19.2508 14.168 18.2568 14.168C17.2488 14.168 16.4228 14.105 15.7788 13.979C15.1488 13.839 14.6518 13.692 14.2878 13.538C13.8538 13.356 13.5318 13.146 13.3217 12.908L14.0358 10.031H17.7318C17.7178 10.157 17.7038 10.332 17.6898 10.556C17.6758 10.766 17.6688 10.934 17.6688 11.06C17.6688 11.228 17.6898 11.403 17.7318 11.585C17.7738 11.767 17.8368 11.935 17.9208 12.089C18.0188 12.243 18.1518 12.369 18.3198 12.467C18.4878 12.565 18.6978 12.614 18.9498 12.614C19.2298 12.614 19.4748 12.551 19.6848 12.425C19.9088 12.299 20.0908 12.145 20.2308 11.963C20.3848 11.767 20.4968 11.557 20.5668 11.333C20.6508 11.095 20.6928 10.864 20.6928 10.64C20.6928 10.332 20.6158 10.073 20.4618 9.863C20.3218 9.653 20.1258 9.478 19.8738 9.338C19.6218 9.184 19.3278 9.058 18.9918 8.96C18.6698 8.848 18.3338 8.736 17.9838 8.624C17.6478 8.526 17.2908 8.407 16.9128 8.267C16.5488 8.127 16.2128 7.931 15.9048 7.679C15.5968 7.427 15.3378 7.112 15.1278 6.734C14.9318 6.342 14.8338 5.845 14.8338 5.243C14.8338 4.347 15.0578 3.598 15.5058 2.996C15.9678 2.38 16.5418 1.883 17.2278 1.505C17.9278 1.127 18.6908 0.860999 19.5168 0.707C20.3428 0.538999 21.1268 0.454999 21.8688 0.454999C22.8488 0.454999 23.6888 0.573999 24.3888 0.812C25.1028 1.036 25.6418 1.302 26.0058 1.61L25.2288 4.529H21.7428ZM31.4009 9.233C31.3309 9.541 31.2749 9.807 31.2329 10.031C31.1909 10.255 31.1699 10.465 31.1699 10.661C31.1699 11.151 31.3379 11.543 31.6739 11.837C32.0239 12.131 32.5349 12.278 33.2069 12.278C33.6969 12.278 34.0959 12.194 34.4039 12.026C34.7259 11.858 34.9849 11.634 35.1809 11.354C35.3909 11.074 35.5519 10.752 35.6639 10.388C35.7899 10.024 35.8949 9.639 35.9789 9.233L37.7639 0.664999H39.6749L37.8479 9.275C37.7079 9.947 37.5049 10.577 37.2389 11.165C36.9729 11.753 36.5879 12.271 36.0839 12.719C35.5939 13.167 34.9569 13.524 34.1729 13.79C33.3889 14.042 32.4159 14.168 31.2539 14.168C29.6439 14.168 28.4539 13.909 27.6839 13.391C26.9139 12.859 26.5289 12.047 26.5289 10.955C26.5289 10.465 26.5919 9.842 26.7179 9.086C26.8439 8.33 27.0049 7.511 27.2009 6.629L28.4819 0.664999H33.2489L31.4009 9.233ZM47.2955 4.529C47.3375 4.319 47.3585 4.032 47.3585 3.668C47.3585 3.458 47.3445 3.255 47.3165 3.059C47.2885 2.849 47.2395 2.667 47.1695 2.513C47.0995 2.345 46.9945 2.219 46.8545 2.135C46.7145 2.037 46.5325 1.988 46.3085 1.988C46.0565 1.988 45.8255 2.044 45.6155 2.156C45.4055 2.268 45.2165 2.415 45.0485 2.597C44.8945 2.765 44.7685 2.968 44.6705 3.206C44.5865 3.43 44.5445 3.668 44.5445 3.92C44.5445 4.284 44.6355 4.564 44.8175 4.76C45.0135 4.956 45.2655 5.117 45.5735 5.243C45.8815 5.369 46.2315 5.474 46.6235 5.558C47.0155 5.642 47.4215 5.74 47.8415 5.852C48.1915 5.95 48.5415 6.076 48.8915 6.23C49.2415 6.384 49.5495 6.594 49.8155 6.86C50.0955 7.112 50.3195 7.448 50.4875 7.868C50.6555 8.274 50.7395 8.785 50.7395 9.401C50.7395 10.283 50.5645 11.025 50.2145 11.627C49.8645 12.229 49.3815 12.719 48.7655 13.097C48.1495 13.475 47.4145 13.748 46.5605 13.916C45.7205 14.084 44.8035 14.168 43.8095 14.168C42.8015 14.168 41.9755 14.105 41.3315 13.979C40.7015 13.839 40.2045 13.692 39.8405 13.538C39.4065 13.356 39.0845 13.146 38.8745 12.908L39.5885 10.031H43.2845C43.2705 10.157 43.2565 10.332 43.2425 10.556C43.2285 10.766 43.2215 10.934 43.2215 11.06C43.2215 11.228 43.2425 11.403 43.2845 11.585C43.3265 11.767 43.3895 11.935 43.4735 12.089C43.5715 12.243 43.7045 12.369 43.8725 12.467C44.0405 12.565 44.2505 12.614 44.5025 12.614C44.7825 12.614 45.0275 12.551 45.2375 12.425C45.4615 12.299 45.6435 12.145 45.7835 11.963C45.9375 11.767 46.0495 11.557 46.1195 11.333C46.2035 11.095 46.2455 10.864 46.2455 10.64C46.2455 10.332 46.1685 10.073 46.0145 9.863C45.8745 9.653 45.6785 9.478 45.4265 9.338C45.1745 9.184 44.8805 9.058 44.5445 8.96C44.2225 8.848 43.8865 8.736 43.5365 8.624C43.2005 8.526 42.8435 8.407 42.4655 8.267C42.1015 8.127 41.7655 7.931 41.4575 7.679C41.1495 7.427 40.8905 7.112 40.6805 6.734C40.4845 6.342 40.3865 5.845 40.3865 5.243C40.3865 4.347 40.6105 3.598 41.0585 2.996C41.5205 2.38 42.0945 1.883 42.7805 1.505C43.4805 1.127 44.2435 0.860999 45.0695 0.707C45.8955 0.538999 46.6795 0.454999 47.4215 0.454999C48.4015 0.454999 49.2415 0.573999 49.9415 0.812C50.6555 1.036 51.1945 1.302 51.5585 1.61L50.7815 4.529H47.2955ZM62.9807 14H58.0667L57.7727 10.661H53.8877L52.3967 14H50.3597L56.5547 0.664999H61.5317L62.9807 14ZM54.5807 9.128H57.6257L57.1427 3.416L54.5807 9.128ZM70.7205 8.246C71.1405 8.246 71.4905 8.071 71.7705 7.721C72.0645 7.371 72.3025 6.944 72.4845 6.44C72.6805 5.936 72.8205 5.411 72.9045 4.865C72.9885 4.319 73.0305 3.843 73.0305 3.437C73.0305 3.059 72.9675 2.744 72.8415 2.492C72.7155 2.226 72.4425 2.093 72.0225 2.093H71.0775L69.7545 8.246H70.7205ZM69.4605 9.59L68.5155 14H63.9795L66.8145 0.664999H71.6655C72.4635 0.664999 73.1915 0.706999 73.8495 0.791C74.5075 0.875 75.0745 1.043 75.5505 1.295C76.0265 1.547 76.3975 1.911 76.6635 2.387C76.9295 2.849 77.0625 3.472 77.0625 4.256C77.0625 4.984 76.9435 5.677 76.7055 6.335C76.4815 6.979 76.1105 7.546 75.5925 8.036C75.0885 8.512 74.4305 8.89 73.6185 9.17C72.8065 9.45 71.8195 9.59 70.6575 9.59H69.4605Z" fill="black"/>
</g>
<defs>
<filter id="filter0_d" x="0.0130005" y="0.455017" width="79.0495" height="16.713" filterUnits="userSpaceOnUse" color-interpolation-filters="sRGB">
<feFlood flood-opacity="0" result="BackgroundImageFix"/>
<feColorMatrix in="SourceAlpha" type="matrix" values="0 0 0 0 0 0 0 0 0 0 0 0 0 0 0 0 0 0 127 0"/>
<feOffset dx="1" dy="2"/>
<feGaussianBlur stdDeviation="0.5"/>
<feColorMatrix type="matrix" values="0 0 0 0 0 0 0 0 0 0 0 0 0 0 0 0 0 0 0.25 0"/>
<feBlend mode="normal" in2="BackgroundImageFix" result="effect1_dropShadow"/>
<feBlend mode="normal" in="SourceGraphic" in2="effect1_dropShadow" result="shape"/>
</filter>
</defs>
</svg>
