<svg width="67" height="18" viewBox="0 0 67 18" fill="none" xmlns="http://www.w3.org/2000/svg">
<g filter="url(#filter0_d)">
<path d="M2.14844 12H1.27344L6.32812 0.828125H7.30469L12.3828 12H11.4062L9.75 8.25H4.74219L4.98438 7.54688H9.44531L6.76562 1.46875L2.14844 12ZM13.8281 11.6094V10.75C15 11.1667 16.2917 11.375 17.7031 11.375C20.0417 11.375 21.2109 10.4896 21.2109 8.71875C21.2109 7.41667 20.4505 6.76562 18.9297 6.76562H16.6328C14.5547 6.76562 13.5156 5.82812 13.5156 3.95312C13.5156 1.81771 15.0391 0.75 18.0859 0.75C19.3359 0.75 20.5469 0.90625 21.7188 1.21875V2C20.5469 1.63542 19.3359 1.45312 18.0859 1.45312C15.5859 1.45312 14.3359 2.28646 14.3359 3.95312C14.3359 5.30729 15.1016 5.98438 16.6328 5.98438H18.9297C20.9974 5.98438 22.0312 6.89583 22.0312 8.71875C22.0312 10.9583 20.5885 12.0781 17.7031 12.0781C16.2917 12.0781 15 11.9219 13.8281 11.6094ZM24.1406 7.6875V0.828125H24.9609V7.6875C24.9609 10.1458 26.1849 11.375 28.6328 11.375C31.0807 11.375 32.3047 10.1458 32.3047 7.6875V0.828125H33.125V7.6875C33.125 10.6146 31.6276 12.0781 28.6328 12.0781C25.638 12.0781 24.1406 10.6146 24.1406 7.6875ZM35.5469 11.6094V10.75C36.7188 11.1667 38.0104 11.375 39.4219 11.375C41.7604 11.375 42.9297 10.4896 42.9297 8.71875C42.9297 7.41667 42.1693 6.76562 40.6484 6.76562H38.3516C36.2734 6.76562 35.2344 5.82812 35.2344 3.95312C35.2344 1.81771 36.7578 0.75 39.8047 0.75C41.0547 0.75 42.2656 0.90625 43.4375 1.21875V2C42.2656 1.63542 41.0547 1.45312 39.8047 1.45312C37.3047 1.45312 36.0547 2.28646 36.0547 3.95312C36.0547 5.30729 36.8203 5.98438 38.3516 5.98438H40.6484C42.7161 5.98438 43.75 6.89583 43.75 8.71875C43.75 10.9583 42.3073 12.0781 39.4219 12.0781C38.0104 12.0781 36.7188 11.9219 35.5469 11.6094ZM45.7578 12H44.8828L49.9375 0.828125H50.9141L55.9922 12H55.0156L53.3594 8.25H48.3516L48.5938 7.54688H53.0547L50.375 1.46875L45.7578 12ZM57.5156 12V0.828125H62.2031C64.3802 0.828125 65.4688 1.85156 65.4688 3.89844C65.4688 5.91406 63.7266 7.19792 60.2422 7.75L60.1016 7C63.0703 6.58854 64.5547 5.57552 64.5547 3.96094C64.5547 2.35677 63.7266 1.55469 62.0703 1.55469H58.3359V12H57.5156Z" fill="black"/>
</g>
<defs>
<filter id="filter0_d" x="0.273438" y="0.75" width="66.1953" height="16.3281" filterUnits="userSpaceOnUse" color-interpolation-filters="sRGB">
<feFlood flood-opacity="0" result="BackgroundImageFix"/>
<feColorMatrix in="SourceAlpha" type="matrix" values="0 0 0 0 0 0 0 0 0 0 0 0 0 0 0 0 0 0 127 0"/>
<feOffset dy="4"/>
<feGaussianBlur stdDeviation="0.5"/>
<feColorMatrix type="matrix" values="0 0 0 0 0 0 0 0 0 0 0 0 0 0 0 0 0 0 0.25 0"/>
<feBlend mode="normal" in2="BackgroundImageFix" result="effect1_dropShadow"/>
<feBlend mode="normal" in="SourceGraphic" in2="effect1_dropShadow" result="shape"/>
</filter>
</defs>
</svg>
