<svg width="80" height="52" viewBox="0 0 80 52" fill="none" xmlns="http://www.w3.org/2000/svg">
<path d="M59 21C59 30.7556 46.5 38 41.5 52C31.5 45.5 19 30.7556 19 21C19 11.2443 27.9543 0 39 0C50.0457 0 59 11.2443 59 21Z" fill="#CED3D8"/>
<g filter="url(#filter0_d)">
<path d="M12.634 30H7.72L7.426 26.661H3.541L2.05 30H0.013L6.208 16.665H11.185L12.634 30ZM4.234 25.128H7.279L6.796 19.416L4.234 25.128ZM21.7428 20.529C21.7848 20.319 21.8058 20.032 21.8058 19.668C21.8058 19.458 21.7918 19.255 21.7638 19.059C21.7358 18.849 21.6868 18.667 21.6168 18.513C21.5468 18.345 21.4418 18.219 21.3018 18.135C21.1618 18.037 20.9798 17.988 20.7558 17.988C20.5038 17.988 20.2728 18.044 20.0628 18.156C19.8528 18.268 19.6638 18.415 19.4958 18.597C19.3418 18.765 19.2158 18.968 19.1178 19.206C19.0338 19.43 18.9918 19.668 18.9918 19.92C18.9918 20.284 19.0828 20.564 19.2648 20.76C19.4608 20.956 19.7128 21.117 20.0208 21.243C20.3288 21.369 20.6788 21.474 21.0708 21.558C21.4628 21.642 21.8688 21.74 22.2888 21.852C22.6388 21.95 22.9888 22.076 23.3388 22.23C23.6888 22.384 23.9968 22.594 24.2627 22.86C24.5428 23.112 24.7668 23.448 24.9348 23.868C25.1028 24.274 25.1868 24.785 25.1868 25.401C25.1868 26.283 25.0118 27.025 24.6618 27.627C24.3118 28.229 23.8288 28.719 23.2128 29.097C22.5968 29.475 21.8618 29.748 21.0078 29.916C20.1678 30.084 19.2508 30.168 18.2568 30.168C17.2488 30.168 16.4228 30.105 15.7788 29.979C15.1488 29.839 14.6518 29.692 14.2878 29.538C13.8538 29.356 13.5318 29.146 13.3217 28.908L14.0358 26.031H17.7318C17.7178 26.157 17.7038 26.332 17.6898 26.556C17.6758 26.766 17.6688 26.934 17.6688 27.06C17.6688 27.228 17.6898 27.403 17.7318 27.585C17.7738 27.767 17.8368 27.935 17.9208 28.089C18.0188 28.243 18.1518 28.369 18.3198 28.467C18.4878 28.565 18.6978 28.614 18.9498 28.614C19.2298 28.614 19.4748 28.551 19.6848 28.425C19.9088 28.299 20.0908 28.145 20.2308 27.963C20.3848 27.767 20.4968 27.557 20.5668 27.333C20.6508 27.095 20.6928 26.864 20.6928 26.64C20.6928 26.332 20.6158 26.073 20.4618 25.863C20.3218 25.653 20.1258 25.478 19.8738 25.338C19.6218 25.184 19.3278 25.058 18.9918 24.96C18.6698 24.848 18.3338 24.736 17.9838 24.624C17.6478 24.526 17.2908 24.407 16.9128 24.267C16.5488 24.127 16.2128 23.931 15.9048 23.679C15.5968 23.427 15.3378 23.112 15.1278 22.734C14.9318 22.342 14.8338 21.845 14.8338 21.243C14.8338 20.347 15.0578 19.598 15.5058 18.996C15.9678 18.38 16.5418 17.883 17.2278 17.505C17.9278 17.127 18.6908 16.861 19.5168 16.707C20.3428 16.539 21.1268 16.455 21.8688 16.455C22.8488 16.455 23.6888 16.574 24.3888 16.812C25.1028 17.036 25.6418 17.302 26.0058 17.61L25.2288 20.529H21.7428ZM31.4009 25.233C31.3309 25.541 31.2749 25.807 31.2329 26.031C31.1909 26.255 31.1699 26.465 31.1699 26.661C31.1699 27.151 31.3379 27.543 31.6739 27.837C32.0239 28.131 32.5349 28.278 33.2069 28.278C33.6969 28.278 34.0959 28.194 34.4039 28.026C34.7259 27.858 34.9849 27.634 35.1809 27.354C35.3909 27.074 35.5519 26.752 35.6639 26.388C35.7899 26.024 35.8949 25.639 35.9789 25.233L37.7639 16.665H39.6749L37.8479 25.275C37.7079 25.947 37.5049 26.577 37.2389 27.165C36.9729 27.753 36.5879 28.271 36.0839 28.719C35.5939 29.167 34.9569 29.524 34.1729 29.79C33.3889 30.042 32.4159 30.168 31.2539 30.168C29.6439 30.168 28.4539 29.909 27.6839 29.391C26.9139 28.859 26.5289 28.047 26.5289 26.955C26.5289 26.465 26.5919 25.842 26.7179 25.086C26.8439 24.33 27.0049 23.511 27.2009 22.629L28.4819 16.665H33.2489L31.4009 25.233ZM47.2955 20.529C47.3375 20.319 47.3585 20.032 47.3585 19.668C47.3585 19.458 47.3445 19.255 47.3165 19.059C47.2885 18.849 47.2395 18.667 47.1695 18.513C47.0995 18.345 46.9945 18.219 46.8545 18.135C46.7145 18.037 46.5325 17.988 46.3085 17.988C46.0565 17.988 45.8255 18.044 45.6155 18.156C45.4055 18.268 45.2165 18.415 45.0485 18.597C44.8945 18.765 44.7685 18.968 44.6705 19.206C44.5865 19.43 44.5445 19.668 44.5445 19.92C44.5445 20.284 44.6355 20.564 44.8175 20.76C45.0135 20.956 45.2655 21.117 45.5735 21.243C45.8815 21.369 46.2315 21.474 46.6235 21.558C47.0155 21.642 47.4215 21.74 47.8415 21.852C48.1915 21.95 48.5415 22.076 48.8915 22.23C49.2415 22.384 49.5495 22.594 49.8155 22.86C50.0955 23.112 50.3195 23.448 50.4875 23.868C50.6555 24.274 50.7395 24.785 50.7395 25.401C50.7395 26.283 50.5645 27.025 50.2145 27.627C49.8645 28.229 49.3815 28.719 48.7655 29.097C48.1495 29.475 47.4145 29.748 46.5605 29.916C45.7205 30.084 44.8035 30.168 43.8095 30.168C42.8015 30.168 41.9755 30.105 41.3315 29.979C40.7015 29.839 40.2045 29.692 39.8405 29.538C39.4065 29.356 39.0845 29.146 38.8745 28.908L39.5885 26.031H43.2845C43.2705 26.157 43.2565 26.332 43.2425 26.556C43.2285 26.766 43.2215 26.934 43.2215 27.06C43.2215 27.228 43.2425 27.403 43.2845 27.585C43.3265 27.767 43.3895 27.935 43.4735 28.089C43.5715 28.243 43.7045 28.369 43.8725 28.467C44.0405 28.565 44.2505 28.614 44.5025 28.614C44.7825 28.614 45.0275 28.551 45.2375 28.425C45.4615 28.299 45.6435 28.145 45.7835 27.963C45.9375 27.767 46.0495 27.557 46.1195 27.333C46.2035 27.095 46.2455 26.864 46.2455 26.64C46.2455 26.332 46.1685 26.073 46.0145 25.863C45.8745 25.653 45.6785 25.478 45.4265 25.338C45.1745 25.184 44.8805 25.058 44.5445 24.96C44.2225 24.848 43.8865 24.736 43.5365 24.624C43.2005 24.526 42.8435 24.407 42.4655 24.267C42.1015 24.127 41.7655 23.931 41.4575 23.679C41.1495 23.427 40.8905 23.112 40.6805 22.734C40.4845 22.342 40.3865 21.845 40.3865 21.243C40.3865 20.347 40.6105 19.598 41.0585 18.996C41.5205 18.38 42.0945 17.883 42.7805 17.505C43.4805 17.127 44.2435 16.861 45.0695 16.707C45.8955 16.539 46.6795 16.455 47.4215 16.455C48.4015 16.455 49.2415 16.574 49.9415 16.812C50.6555 17.036 51.1945 17.302 51.5585 17.61L50.7815 20.529H47.2955ZM62.9807 30H58.0667L57.7727 26.661H53.8877L52.3967 30H50.3597L56.5547 16.665H61.5317L62.9807 30ZM54.5807 25.128H57.6257L57.1427 19.416L54.5807 25.128ZM70.7205 24.246C71.1405 24.246 71.4905 24.071 71.7705 23.721C72.0645 23.371 72.3025 22.944 72.4845 22.44C72.6805 21.936 72.8205 21.411 72.9045 20.865C72.9885 20.319 73.0305 19.843 73.0305 19.437C73.0305 19.059 72.9675 18.744 72.8415 18.492C72.7155 18.226 72.4425 18.093 72.0225 18.093H71.0775L69.7545 24.246H70.7205ZM69.4605 25.59L68.5155 30H63.9795L66.8145 16.665H71.6655C72.4635 16.665 73.1915 16.707 73.8495 16.791C74.5075 16.875 75.0745 17.043 75.5505 17.295C76.0265 17.547 76.3975 17.911 76.6635 18.387C76.9295 18.849 77.0625 19.472 77.0625 20.256C77.0625 20.984 76.9435 21.677 76.7055 22.335C76.4815 22.979 76.1105 23.546 75.5925 24.036C75.0885 24.512 74.4305 24.89 73.6185 25.17C72.8065 25.45 71.8195 25.59 70.6575 25.59H69.4605Z" fill="black"/>
</g>
<defs>
<filter id="filter0_d" x="0.0130005" y="16.455" width="79.0495" height="16.713" filterUnits="userSpaceOnUse" color-interpolation-filters="sRGB">
<feFlood flood-opacity="0" result="BackgroundImageFix"/>
<feColorMatrix in="SourceAlpha" type="matrix" values="0 0 0 0 0 0 0 0 0 0 0 0 0 0 0 0 0 0 127 0"/>
<feOffset dx="1" dy="2"/>
<feGaussianBlur stdDeviation="0.5"/>
<feColorMatrix type="matrix" values="0 0 0 0 0 0 0 0 0 0 0 0 0 0 0 0 0 0 0.25 0"/>
<feBlend mode="normal" in2="BackgroundImageFix" result="effect1_dropShadow"/>
<feBlend mode="normal" in="SourceGraphic" in2="effect1_dropShadow" result="shape"/>
</filter>
</defs>
</svg>
