<svg id="Capa_1" enable-background="new 0 0 512 512" height="512" viewBox="0 0 512 512" width="512" xmlns="http://www.w3.org/2000/svg"><g><g><path d="m185.517 247.233-96.428 58.171-28.835 117.856 28.835 81.24h217.426c15.589 0 28.223-12.634 28.223-28.235 0-7.788-3.155-14.856-8.261-19.961-5.106-5.106-12.173-8.261-19.962-8.261h10.129c15.589 0 28.234-12.634 28.234-28.234 0-7.8-3.155-14.844-8.273-19.962-5.105-5.106-12.161-8.261-19.961-8.261h10.14c15.589 0 28.223-12.634 28.223-28.234 0-15.589-12.634-28.223-28.223-28.223h-10.14c15.589 0 28.234-12.634 28.234-28.234 0-7.8-3.155-14.844-8.273-19.962-5.105-5.105-12.161-8.261-19.961-8.261h-54.153l-25.103-25.114c-13.78-13.782-35.184-16.382-51.871-6.325z" fill="#ffddce"/><g><path d="m229.623 148.76h62.827v129.914h-62.827z" fill="#26457d"/><path d="m229.623 148.76h22.43v129.914h-22.43z" fill="#21386b"/></g><g><path d="m334.744 476.268c0 15.594-12.644 28.229-28.229 28.229h-166.662c-16.832 0-31.743-8.184-40.974-20.792h207.636c11.916 0 22.103-7.383 26.236-17.833.009.036.036.064.055.1 1.246 3.187 1.938 6.664 1.938 10.296z" fill="#ffcbbe"/></g><g><path d="m342.884 409.413c1.275 3.22 1.983 6.725 1.983 10.395 0 15.601-12.634 28.235-28.223 28.235h-10.817c-5.742 0-10.396-4.654-10.396-10.396 0-5.742 4.654-10.396 10.396-10.396h10.817c11.918 0 22.101-7.389 26.24-17.838z" fill="#ffcbbe"/></g><g><path d="m353.024 352.956c1.275 3.22 1.983 6.725 1.983 10.395 0 15.601-12.634 28.235-28.223 28.235h-10.817c-5.742 0-10.396-4.654-10.396-10.396 0-5.742 4.654-10.396 10.396-10.396h10.817c11.918-.001 22.101-7.389 26.24-17.838z" fill="#ffcbbe"/></g><g><path d="m342.895 296.499c1.275 3.22 1.983 6.725 1.983 10.395 0 15.601-12.634 28.235-28.223 28.235h-10.817c-5.742 0-10.396-4.654-10.396-10.396 0-5.742 4.654-10.396 10.396-10.396h10.817c11.918-.001 22.102-7.389 26.24-17.838z" fill="#ffcbbe"/></g><path d="m25.812 306.359v176.035c0 12.209 9.897 22.106 22.106 22.106h43.588c12.209 0 22.106-9.897 22.106-22.106v-176.035c0-12.209-9.897-22.106-22.106-22.106h-43.588c-12.209 0-22.106 9.897-22.106 22.106z" fill="#26457d"/><path d="m25.806 426.946v55.453c0 12.208 9.904 22.101 22.113 22.101h43.587c12.209 0 22.101-9.892 22.101-22.101v-55.453c0 12.209-9.892 22.113-22.101 22.113h-43.587c-12.209 0-22.113-9.904-22.113-22.113z" fill="#21386b"/><circle cx="261.409" cy="131.214" fill="#78d0b1" r="123.714"/><path d="m275.385 254.154c-4.58.52-9.25.78-13.97.78-68.33 0-123.72-55.39-123.72-123.72 0-68.32 55.39-123.71 123.72-123.71 4.72 0 9.39.26 13.97.78-61.75 6.94-109.75 59.33-109.75 122.93 0 63.61 48 116 109.75 122.94z" fill="#66b49d"/><g fill="#f1f4f6"><g><path d="m118.862 50.367-1.242 2.152c-4.382 7.59-13.892 10.49-21.764 6.638l-24.213-11.849c-8.673-4.245-11.937-14.946-7.109-23.308l3.087-5.347c4.828-8.362 15.728-10.886 23.74-5.497l22.368 15.045c7.272 4.89 9.515 14.576 5.133 22.166z"/><path d="m403.955 212.061 1.242-2.152c4.382-7.59 13.892-10.49 21.764-6.638l24.213 11.849c8.673 4.244 11.937 14.946 7.109 23.308l-3.087 5.347c-4.828 8.362-15.728 10.886-23.74 5.497l-22.368-15.045c-7.272-4.89-9.515-14.577-5.133-22.166z"/><path d="m96.867 129.971v2.485c0 8.764-6.786 16.031-15.529 16.631l-26.894 1.845c-9.633.661-17.811-6.975-17.811-16.631v-6.174c0-9.656 8.178-17.292 17.811-16.631l26.894 1.845c8.743.599 15.529 7.867 15.529 16.63z"/><path d="m425.951 132.456v-2.485c0-8.764 6.786-16.031 15.529-16.631l26.894-1.845c9.633-.661 17.811 6.975 17.811 16.631v6.174c0 9.656-8.178 17.292-17.811 16.631l-26.894-1.845c-8.744-.599-15.529-7.866-15.529-16.63z"/><path d="m117.62 209.909 1.242 2.152c4.382 7.59 2.139 17.276-5.133 22.167l-22.368 15.045c-8.012 5.389-18.912 2.865-23.74-5.497l-3.087-5.347c-4.828-8.362-1.564-19.064 7.109-23.308l24.213-11.849c7.872-3.854 17.382-.953 21.764 6.637z"/><path d="m405.197 52.519-1.242-2.152c-4.382-7.59-2.139-17.276 5.133-22.167l22.368-15.045c8.012-5.389 18.912-2.865 23.74 5.497l3.088 5.348c4.828 8.362 1.564 19.064-7.109 23.308l-24.213 11.849c-7.872 3.852-17.383.951-21.765-6.638z"/></g><path d="m225.134 203.642-38.679-64.705c-3.727-6.235-1.694-14.311 4.541-18.038l19.512-11.664c6.235-3.727 14.311-1.694 18.038 4.541l19.628 32.834 40.315-81.332c3.226-6.508 11.117-9.169 17.626-5.943l20.368 10.096c6.508 3.226 9.169 11.117 5.943 17.626l-56.805 114.6c-2.137 4.312-6.459 7.112-11.268 7.301l-27.412 1.078c-4.81.189-9.338-2.263-11.807-6.394z"/></g></g><g><path d="m392.622 131.214c0-72.352-58.862-131.214-131.214-131.214s-131.213 58.862-131.213 131.214c0 44.294 22.065 83.528 55.777 107.3-1.477.702-2.928 1.458-4.33 2.304l-71.114 42.888c-5.149-4.33-11.785-6.946-19.023-6.946h-43.59c-16.321 0-29.6 13.279-29.6 29.6v176.04c0 16.322 13.279 29.6 29.6 29.6h43.59c7.555 0 14.455-2.849 19.691-7.525 8.701 4.938 18.484 7.522 28.656 7.522h166.662c19.701 0 35.729-16.028 35.729-35.729 0-4.483-.826-8.867-2.455-13.029-1.673-4.272-4.104-8.114-7.232-11.432 11.737-5.862 19.819-18 19.819-31.988 0-9.187-3.434-17.834-9.689-24.471 11.74-5.863 19.821-18.004 19.821-31.997 0-13.997-8.091-26.14-19.84-31.998 6.018-6.397 9.708-15.005 9.708-24.46 0-9.54-3.716-18.51-10.467-25.262-6.757-6.744-15.729-10.458-25.263-10.458h-16.698v-14.524c53.604-16.503 92.675-66.49 92.675-125.435zm-247.427 0c0-64.081 52.133-116.214 116.213-116.214s116.214 52.133 116.214 116.214-52.134 116.214-116.214 116.214-116.213-52.134-116.213-116.214zm58.79 139.959c-4.142 0-7.5 3.358-7.5 7.5s3.358 7.5 7.5 7.5h112.662c5.533 0 10.741 2.157 14.66 6.069 3.914 3.914 6.069 9.117 6.069 14.651 0 11.43-9.299 20.729-20.729 20.729-4.143 0-7.5 3.358-7.5 7.5s3.357 7.5 7.5 7.5h10.132c11.431 0 20.729 9.299 20.729 20.729 0 11.435-9.299 20.738-20.729 20.738h-10.132c-4.143 0-7.5 3.358-7.5 7.5s3.357 7.5 7.5 7.5c5.54 0 10.747 2.156 14.665 6.074 3.911 3.904 6.064 9.109 6.064 14.656 0 11.43-9.299 20.729-20.729 20.729h-10.132c-4.143 0-7.5 3.358-7.5 7.5s3.357 7.5 7.5 7.5c5.533 0 10.741 2.157 14.669 6.077 2.03 2.024 3.59 4.406 4.637 7.081.945 2.413 1.424 4.958 1.424 7.562 0 11.43-9.299 20.729-20.729 20.729h-166.663c-7.191 0-14.113-1.743-20.33-5.069 1.021-2.992 1.583-6.195 1.583-9.528v-40.45c0-4.142-3.358-7.5-7.5-7.5s-7.5 3.358-7.5 7.5v40.45c0 8.051-6.55 14.6-14.6 14.6h-43.59c-8.05 0-14.6-6.55-14.6-14.6v-176.04c0-8.051 6.55-14.6 14.6-14.6h43.59c8.05 0 14.6 6.55 14.6 14.6v105.59c0 4.142 3.358 7.5 7.5 7.5s7.5-3.358 7.5-7.5v-105.59c0-3.651-.669-7.148-1.883-10.38l70.168-42.318c4.266-2.574 9.075-4.205 14.01-4.776 5.997 2.968 12.249 5.496 18.718 7.531v14.757h-18.134zm80.963-.003h-47.831v-11.005c7.875 1.48 15.992 2.263 24.291 2.263 8.034 0 15.901-.73 23.54-2.119z"/><path d="m68.346 54.044 24.213 11.849c3.387 1.658 6.996 2.446 10.56 2.446 8.398 0 16.554-4.376 20.996-12.07l1.243-2.152s0 0 0-.001c6.328-10.96 3.058-25.078-7.443-32.141l-22.368-15.043c-5.537-3.724-12.439-4.996-18.942-3.492-6.501 1.505-12.143 5.683-15.479 11.462l-3.087 5.347c-3.336 5.779-4.133 12.754-2.187 19.136s6.501 11.726 12.494 14.659zm2.683-26.294 3.087-5.348c1.285-2.225 3.37-3.769 5.873-4.348.699-.162 1.401-.242 2.098-.242 1.797 0 3.552.533 5.089 1.566l22.369 15.044c3.984 2.679 5.224 8.035 2.824 12.193l-1.243 2.153c-2.401 4.158-7.659 5.762-11.972 3.652l-24.214-11.849c-2.308-1.129-3.991-3.104-4.741-5.561-.75-2.458-.455-5.036.83-7.26z"/><path d="m454.471 208.383-24.213-11.849c-11.367-5.562-25.228-1.336-31.555 9.623l-1.243 2.152s-.001.001-.001.002c-6.328 10.96-3.059 25.078 7.443 32.141l22.368 15.045c4.012 2.698 8.741 4.11 13.516 4.11 1.814 0 3.636-.204 5.426-.618 6.501-1.505 12.143-5.683 15.479-11.462l3.087-5.347c3.336-5.778 4.134-12.753 2.188-19.135-1.947-6.385-6.501-11.728-12.495-14.662zm-2.683 26.295-3.087 5.347c-1.284 2.225-3.37 3.769-5.873 4.349-2.504.579-5.056.109-7.187-1.325l-22.368-15.045c-3.983-2.679-5.225-8.034-2.825-12.192l1.244-2.154c2.4-4.158 7.661-5.762 11.972-3.652l24.213 11.849c2.308 1.129 3.991 3.105 4.741 5.562.749 2.458.455 5.036-.83 7.261z"/><path d="m36.807 151.967c4.477 4.18 10.418 6.503 16.512 6.503.545 0 1.092-.019 1.638-.056l26.894-1.845c12.626-.866 22.516-11.458 22.516-24.113v-2.485c0-12.656-9.89-23.248-22.516-24.113l-26.894-1.845c-6.656-.457-13.273 1.894-18.15 6.448s-7.674 10.993-7.674 17.666v6.174c0 6.673 2.797 13.112 7.674 17.666zm7.326-23.84c0-2.569 1.034-4.949 2.912-6.702 1.719-1.605 3.913-2.469 6.238-2.469.215 0 .431.007.648.022l26.894 1.845c4.79.329 8.542 4.347 8.542 9.148v2.485c0 4.801-3.752 8.82-8.542 9.148l-26.894 1.845c-2.564.175-5.009-.693-6.886-2.446s-2.912-4.134-2.912-6.702z"/><path d="m486.011 110.461c-4.878-4.554-11.49-6.905-18.151-6.448l-26.893 1.845c-12.626.866-22.517 11.458-22.517 24.113v2.485c0 12.655 9.891 23.247 22.516 24.113l26.894 1.845c.547.038 1.093.056 1.638.056 6.095 0 12.036-2.323 16.513-6.504 4.878-4.554 7.675-10.993 7.675-17.666v-6.174c-.001-6.672-2.798-13.111-7.675-17.665zm-7.326 23.84c0 2.569-1.034 4.949-2.911 6.702-1.879 1.754-4.334 2.622-6.887 2.446l-26.894-1.845c-4.791-.329-8.543-4.347-8.543-9.148v-2.485c0-4.802 3.752-8.82 8.543-9.148l26.893-1.845c.218-.015.434-.022.648-.022 2.325 0 4.521.864 6.239 2.469 1.877 1.753 2.911 4.133 2.911 6.702v6.174z"/><path d="m92.559 196.534-24.213 11.849c-5.994 2.933-10.547 8.276-12.494 14.659s-1.15 13.357 2.187 19.136l3.087 5.347c3.336 5.779 8.978 9.956 15.479 11.462 1.791.415 3.611.618 5.426.618 4.774 0 9.504-1.411 13.516-4.11l22.369-15.045c10.501-7.063 13.771-21.181 7.442-32.141l-1.243-2.152v.001c-6.327-10.959-20.188-15.186-31.556-9.624zm16.985 31.471-22.369 15.045c-2.132 1.434-4.686 1.903-7.187 1.324-2.502-.579-4.588-2.124-5.873-4.348l-3.087-5.347c-1.284-2.225-1.579-4.803-.83-7.26.75-2.457 2.433-4.432 4.741-5.562l24.213-11.849c1.285-.629 2.654-.928 4.006-.928 3.187 0 6.28 1.66 7.966 4.58v.001l1.242 2.151c2.402 4.157 1.162 9.513-2.822 12.193z"/><path d="m398.702 56.269c4.442 7.695 12.597 12.071 20.996 12.071 3.563 0 7.173-.789 10.56-2.446l24.213-11.849c5.993-2.933 10.548-8.276 12.494-14.659 1.947-6.383 1.15-13.357-2.187-19.135l-3.087-5.348c-3.337-5.779-8.979-9.957-15.48-11.462-6.5-1.504-13.404-.232-18.94 3.491l-22.368 15.044c-10.502 7.063-13.771 21.181-7.442 32.143zm14.572-21.846 22.368-15.045c1.537-1.033 3.292-1.566 5.089-1.566.696 0 1.398.08 2.098.242 2.503.58 4.589 2.124 5.873 4.348l3.087 5.348c1.284 2.224 1.579 4.803.83 7.26-.75 2.457-2.434 4.433-4.741 5.562l-24.214 11.848c-4.313 2.11-9.57.506-11.972-3.652 0 0-.001-.001-.001-.002l-1.242-2.15c-2.4-4.157-1.16-9.513 2.825-12.193z"/><path d="m282.335 204.991 34.229-69.05c1.84-3.711.322-8.211-3.389-10.051-3.71-1.839-8.21-.322-10.051 3.389l-34.233 69.058c-.913 1.848-2.765 3.047-4.831 3.129l-27.422 1.08c-2.074.075-4.001-.974-5.066-2.754l-38.68-64.7c-1.599-2.675-.722-6.154 1.95-7.754l19.51-11.66c2.676-1.601 6.155-.725 7.755 1.951l19.63 32.83c1.408 2.355 3.991 3.758 6.732 3.645 2.742-.108 5.206-1.705 6.424-4.164l40.309-81.328c.672-1.354 1.83-2.366 3.261-2.848 1.433-.483 2.965-.377 4.321.296l20.365 10.088c1.355.672 2.367 1.83 2.849 3.261.482 1.43.378 2.963-.296 4.321l-9.25 18.67c-1.839 3.711-.32 8.211 3.391 10.05 3.714 1.839 8.213.321 10.051-3.391l9.248-18.666c2.453-4.943 2.833-10.545 1.071-15.774-1.761-5.227-5.453-9.456-10.4-11.911l-20.365-10.088c-4.944-2.453-10.545-2.833-15.774-1.071-5.227 1.761-9.456 5.454-11.909 10.399l-34.207 69.015-12.577-21.033c-5.843-9.774-18.548-12.973-28.325-7.13l-19.515 11.663c-9.768 5.848-12.964 18.554-7.125 28.323l38.681 64.701c3.743 6.26 10.475 10.062 17.713 10.062.272 0 .545-.006.819-.016l27.421-1.08c7.563-.297 14.34-4.693 17.685-11.462z"/></g></g></svg>