<svg id="Capa_1" enable-background="new 0 0 512 512" height="512" viewBox="0 0 512 512" width="512" xmlns="http://www.w3.org/2000/svg"><g><g><path d="m224.685 245.898h74.752v137.382h-74.752z" fill="#cbe2ff"/></g><g><path d="m265.487 304.6c-9.708-13.965-24.269-23.796-40.802-27.611v106.291h74.752v-62.69c-9.052-8.669-20.85-14.493-33.95-15.99z" fill="#bed8fb"/></g><g><path d="m351.965 47.907h40.407v40.407h-40.407z" fill="#365e7d" transform="matrix(-1 0 0 -1 744.337 136.22)"/></g><g><path d="m311.559 7.5h121.22v40.407h-121.22z" fill="#ac80dd" transform="matrix(-1 0 0 -1 744.337 55.407)"/></g><g><path d="m410.555 7.5h22.224v40.407h-22.224z" fill="#9d66d5" transform="matrix(-1 0 0 -1 843.333 55.407)"/></g><g><path d="m423.687 105.486h121.22v40.407h-121.22z" fill="#365e7d" transform="matrix(0 -1 1 0 358.608 609.986)"/></g><g><g><path d="m224.685 205.492h74.752v-43.437h164.657v-73.742h-178.799c-33.474 0-60.61 27.136-60.61 60.61z" fill="#81a7c6"/></g></g><g><path d="m277.213 205.492h22.224v-43.437h-2.02c-11.158 0-20.203 9.045-20.203 20.203v23.234z" fill="#5c90b9"/></g><g><path d="m441.87 88.313h22.224v73.742h-22.224z" fill="#5c90b9"/></g><g><path d="m297.417 363.077c0-21.349-17.307-38.656-38.656-38.656-1.725 0-3.42.124-5.085.344-7.377-17.248-24.497-29.335-44.443-29.335-7.319 0-14.254 1.636-20.471 4.549-7.62-19.623-26.673-33.54-48.988-33.54-22.306 0-41.353 13.906-48.979 33.516-2.3-.587-4.71-.9-7.192-.9-14.127 0-25.887 10.106-28.462 23.481-2.14-.344-4.333-.529-6.57-.529-22.683 0-41.072 18.388-41.072 41.072h289.918z" fill="#ecf4ff"/></g><g><path d="m258.761 324.422c-1.725 0-3.42.124-5.085.344-.303-.708-.628-1.404-.963-2.095h-44.943c3.337-8.72 3.616-18.339.886-27.225-7.105.084-13.841 1.697-19.893 4.533-5.852-15.07-18.45-26.766-34.088-31.387-5.648 2.05-10.828 5.328-15.203 9.703l-44.427 44.428c-9.457.428-18.526 3.475-26.36 8.877l-13.758 9.488c-1.694 1.169-3.678 1.787-5.735 1.787h-36.375c-3.379 5.966-5.317 12.856-5.317 20.202h289.917c0-21.349-17.307-38.655-38.656-38.655z" fill="#ddeafb"/></g><g><path d="m315.6 383.28h-32.312c10.876 0 19.692-8.816 19.692-19.692 0-11.44-9.274-20.715-20.715-20.715h-118.19l19.988-19.988c8.368-8.368 8.368-21.936 0-30.305-8.368-8.368-21.936-8.368-30.305 0l-50.293 50.293h-6.105c-6.146 0-12.146 1.868-17.205 5.358l-13.758 9.488c-5.059 3.489-11.059 5.358-17.205 5.358h-41.692v141.423h255.571c11.158 0 20.203-9.045 20.203-20.203 0-11.158-9.045-20.203-20.203-20.203h30.305c11.158 0 20.203-9.045 20.203-20.203 0-11.158-9.045-20.203-20.203-20.203h22.224c11.158 0 20.203-9.045 20.203-20.203 0-11.159-9.045-20.205-20.203-20.205z" fill="#ffddce"/></g><g><path d="m263.071 482.276h-255.571v22.224h255.571c11.158 0 20.203-9.045 20.203-20.203 0-4.107-1.233-7.923-3.339-11.112-3.614 5.474-9.813 9.091-16.864 9.091z" fill="#ffcbbe"/></g><g><circle cx="129.73" cy="181.248" fill="#ecf4ff" r="32.325"/></g><g><path d="m142.333 151.472c1.641 3.873 2.55 8.132 2.55 12.603 0 17.853-14.473 32.325-32.325 32.325-4.471 0-8.73-.908-12.603-2.55 4.912 11.591 16.394 19.722 29.776 19.722 17.853 0 32.325-14.473 32.325-32.325-.001-13.38-8.132-24.863-19.723-29.775z" fill="#ddeafb"/></g><g><circle cx="89.323" cy="146.902" fill="#ecf4ff" r="20.203"/></g><g><path d="m97.2 128.293c1.026 2.421 1.593 5.082 1.593 7.877 0 11.158-9.045 20.203-20.203 20.203-2.795 0-5.456-.568-7.877-1.593 3.07 7.244 10.246 12.326 18.61 12.326 11.158 0 20.203-9.045 20.203-20.203 0-8.364-5.082-15.54-12.326-18.61z" fill="#ddeafb"/></g><g><path d="m201.451 205.492h121.22v40.407h-121.22z" fill="#365e7d"/></g><g><path d="m134.59 497h-127.09c-4.143 0-7.5 3.358-7.5 7.5s3.357 7.5 7.5 7.5h127.09c4.143 0 7.5-3.358 7.5-7.5s-3.358-7.5-7.5-7.5z"/><path d="m89.323 174.605c.386 0 .769-.014 1.151-.029-.368 2.171-.57 4.398-.57 6.672 0 21.959 17.865 39.825 39.825 39.825s39.825-17.866 39.825-39.825-17.865-39.825-39.825-39.825c-4.518 0-8.858.767-12.909 2.159-1.647-13.715-13.346-24.383-27.497-24.383-15.275 0-27.703 12.428-27.703 27.703s12.428 27.703 27.703 27.703zm65.232 6.643c0 13.688-11.137 24.825-24.825 24.825s-24.825-11.137-24.825-24.825 11.137-24.825 24.825-24.825 24.825 11.137 24.825 24.825zm-65.232-47.049c7.005 0 12.703 5.699 12.703 12.703s-5.698 12.703-12.703 12.703-12.703-5.699-12.703-12.703 5.698-12.703 12.703-12.703z"/><path d="m504.5 57.579h-40.406c-4.143 0-7.5 3.358-7.5 7.5v15.731h-56.722v-25.4h32.908c4.143 0 7.5-3.358 7.5-7.5v-40.41c0-4.142-3.357-7.5-7.5-7.5h-69.53c-4.143 0-7.5 3.358-7.5 7.5s3.357 7.5 7.5 7.5h62.03v25.41h-106.22v-25.41h9.19c4.143 0 7.5-3.358 7.5-7.5s-3.357-7.5-7.5-7.5h-16.69c-4.143 0-7.5 3.358-7.5 7.5v40.41c0 4.142 3.357 7.5 7.5 7.5h32.906v25.4h-59.176c-37.557 0-68.11 30.554-68.11 68.11v49.072h-15.729c-4.143 0-7.5 3.358-7.5 7.5v40.407c0 4.142 3.357 7.5 7.5 7.5h15.733v35.101c-2.609-.374-5.265-.57-7.954-.57-5.707 0-11.279.849-16.64 2.529-10.408-19.277-30.707-31.52-52.821-31.52-22.897 0-43.278 12.654-53.466 32.71-.901-.067-1.804-.101-2.704-.101-15.122 0-28.452 9.336-33.893 22.973-.379-.009-.758-.013-1.137-.013-26.78.002-48.569 21.79-48.569 48.572 0 4.142 3.357 7.5 7.5 7.5h41.69c7.702 0 15.125-2.312 21.471-6.688l13.747-9.489c3.826-2.639 8.305-4.034 12.952-4.034h6.109c1.989 0 3.896-.79 5.304-2.197l50.289-50.29c2.634-2.634 6.131-4.084 9.848-4.084s7.213 1.45 9.846 4.083c5.433 5.432 5.433 14.271 0 19.704l-19.979 19.98c-2.145 2.145-2.786 5.371-1.625 8.173 1.16 2.803 3.896 4.63 6.929 4.63h118.18c3.53 0 6.85 1.375 9.347 3.873 2.498 2.498 3.874 5.817 3.874 9.347 0 6.722-5.469 12.19-12.19 12.19-.003 0-.006 0-.01 0h-70.097c-4.143 0-7.5 3.358-7.5 7.5s3.357 7.5 7.5 7.5h102.416c3.395 0 6.58 1.32 8.978 3.724 2.4 2.4 3.723 5.588 3.723 8.976 0 7.008-5.697 12.71-12.7 12.71l-102.416-.003c-4.143 0-7.5 3.358-7.5 7.5s3.357 7.5 7.5 7.5h80.138c.02 0 .039.003.058.003 3.388 0 6.578 1.321 8.978 3.714 2.4 2.4 3.723 5.592 3.723 8.986 0 7.002-5.697 12.7-12.7 12.7l-80.196.003c-4.143 0-7.5 3.358-7.5 7.5s3.357 7.5 7.5 7.5h49.888c.011 0 .022-.002.034-.002 3.38.009 6.559 1.329 8.944 3.714 2.399 2.406 3.721 5.601 3.721 8.995 0 7.003-5.697 12.7-12.699 12.7h-93.48c-4.143 0-7.5 3.358-7.5 7.5s3.357 7.5 7.5 7.5h93.48c15.273 0 27.699-12.426 27.699-27.7 0-4.494-1.062-8.825-3.07-12.71h5.681c15.273 0 27.7-12.426 27.7-27.7 0-4.53-1.08-8.894-3.119-12.8 14.173-1.203 25.339-13.126 25.339-27.61 0-7.395-2.883-14.35-8.108-19.575-5.225-5.24-12.183-8.125-19.592-8.125h-8.008c1.848-3.669 2.889-7.81 2.889-12.19 0-4.874-1.235-9.556-3.544-13.7v-96.492h15.734c4.143 0 7.5-3.358 7.5-7.5v-40.407c0-4.142-3.357-7.5-7.5-7.5h-15.73v-28.439h77.899c4.143 0 7.5-3.358 7.5-7.5s-3.357-7.5-7.5-7.5h-85.405c-4.143 0-7.5 3.358-7.5 7.5v35.94h-59.76v-49.07c0-29.285 23.825-53.11 53.11-53.11h171.304v58.74h-36.754c-4.143 0-7.5 3.358-7.5 7.5s3.357 7.5 7.5 7.5h36.754v16.749c0 4.142 3.357 7.5 7.5 7.5h40.406c4.143 0 7.5-3.358 7.5-7.5v-121.22c0-4.142-3.357-7.5-7.5-7.5zm-356.044 229.698-48.093 48.093h-3.003c-7.703 0-15.127 2.312-21.471 6.688l-13.747 9.488c-3.827 2.639-8.306 4.034-12.952 4.034h-33.335c3.417-14.911 16.783-26.07 32.715-26.07 1.805 0 3.607.146 5.358.432 4.009.657 7.808-1.996 8.575-5.981 1.945-10.088 10.817-17.41 21.096-17.41 1.791 0 3.597.227 5.366.673 3.665.922 7.453-1.028 8.825-4.556 6.78-17.451 23.258-28.727 41.979-28.727 7.844 0 15.381 2.058 21.976 5.752-4.983 1.265-9.555 3.85-13.289 7.584zm40.907 40.916c6.434-6.434 9.192-15.169 8.286-23.58 3.74-1.11 7.613-1.683 11.581-1.683 16.37 0 31.111 9.73 37.554 24.79 1.324 3.094 4.544 4.927 7.882 4.485 1.426-.189 2.803-.285 4.094-.285 5.11 0 9.981 1.224 14.307 3.45h-90.88zm102.574 2.732c-8.536-8.855-20.363-14.005-33.177-14.005-.188 0-.376.001-.565.004-5.905-10.783-15.102-19.145-26.01-24.062v-39.464h59.752zm23.234-92.527h-106.22v-25.407h106.22zm44.295-182.988h25.406v25.4h-25.406zm137.534 123.389h-25.406v-106.22h25.406z"/></g></g></svg>