<svg id="Layer_1" enable-background="new 0 0 512 512" height="512" viewBox="0 0 512 512" width="512" xmlns="http://www.w3.org/2000/svg"><g><g><path d="m131.4 364.72c0 74.59-60.99 138.77-61.94 139.77-.01.01-.01.01-.01.01s-61.95-64.6-61.95-139.78c0-34.21 27.74-61.93 61.95-61.93s61.95 27.72 61.95 61.93z" fill="#ff4656"/><path d="m69.46 504.49c.58-1 37.99-65.18 37.99-139.77 0-34.21-17.01-61.93-38-61.93 34.21 0 61.95 27.72 61.95 61.93 0 74.59-60.99 138.77-61.94 139.77z" fill="#d93c49"/><path d="m93.51 365.6c0 13.28-10.77 24.05-24.06 24.05-.26 0-.53 0-.79-.02-12.92-.41-23.27-11.01-23.27-24.03s10.35-23.62 23.27-24.03c.26-.02.53-.02.79-.02 13.29 0 24.06 10.77 24.06 24.05z" fill="#fff"/><path d="m93.51 365.6c0 13.28-10.77 24.05-24.06 24.05-.26 0-.53 0-.79-.02 3.49-.41 6.29-11.01 6.29-24.03s-2.8-23.62-6.29-24.03c.26-.02.53-.02.79-.02 13.29 0 24.06 10.77 24.06 24.05z" fill="#eef0f5"/></g><g><path d="m504.49 364.493c0 74.59-60.99 138.77-61.94 139.77-.01.01-.01.01-.01.01s-61.95-64.6-61.95-139.78c0-34.21 27.74-61.93 61.95-61.93s61.95 27.72 61.95 61.93z" fill="#2bbb66"/><path d="m442.55 504.263c.58-1 37.99-65.18 37.99-139.77 0-34.21-17.01-61.93-38-61.93 34.21 0 61.95 27.72 61.95 61.93 0 74.59-60.99 138.77-61.94 139.77z" fill="#249e55"/><path d="m466.6 365.373c0 13.28-10.77 24.05-24.06 24.05-.26 0-.53 0-.79-.02-12.92-.41-23.27-11.01-23.27-24.03s10.35-23.62 23.27-24.03c.26-.02.53-.02.79-.02 13.29 0 24.06 10.77 24.06 24.05z" fill="#fff"/><path d="m466.6 365.373c0 13.28-10.77 24.05-24.06 24.05-.26 0-.53 0-.79-.02 3.49-.41 6.29-11.01 6.29-24.03s-2.8-23.62-6.29-24.03c.26-.02.53-.02.79-.02 13.29 0 24.06 10.77 24.06 24.05z" fill="#eef0f5"/></g><g><path d="m131.4 69.672c0 74.59-60.99 138.77-61.94 139.77-.01.01-.01.01-.01.01s-61.95-64.6-61.95-139.78c0-34.21 27.74-61.93 61.95-61.93s61.95 27.72 61.95 61.93z" fill="#f9d11f"/><path d="m69.46 209.442c.58-1 37.99-65.18 37.99-139.77 0-34.21-17.01-61.93-38-61.93 34.21 0 61.95 27.72 61.95 61.93 0 74.59-60.99 138.77-61.94 139.77z" fill="#ffa402"/><path d="m93.51 70.552c0 13.28-10.77 24.05-24.06 24.05-.26 0-.53 0-.79-.02-12.92-.41-23.27-11.01-23.27-24.03s10.35-23.62 23.27-24.03c.26-.02.53-.02.79-.02 13.29 0 24.06 10.77 24.06 24.05z" fill="#fff"/><path d="m93.51 70.552c0 13.28-10.77 24.05-24.06 24.05-.26 0-.53 0-.79-.02 3.49-.41 6.29-11.01 6.29-24.03s-2.8-23.62-6.29-24.03c.26-.02.53-.02.79-.02 13.29 0 24.06 10.77 24.06 24.05z" fill="#eef0f5"/></g><g><path d="m504.49 69.445c0 74.59-60.99 138.77-61.94 139.77-.01.01-.01.01-.01.01s-61.95-64.6-61.95-139.78c0-34.21 27.74-61.93 61.95-61.93 34.21 0 61.95 27.72 61.95 61.93z" fill="#99e7fa"/><path d="m442.55 209.215c.58-1 37.99-65.18 37.99-139.77 0-34.21-17.01-61.93-38-61.93 34.21 0 61.95 27.72 61.95 61.93 0 74.59-60.99 138.77-61.94 139.77z" fill="#4dd4f7"/><path d="m466.6 70.325c0 13.28-10.77 24.05-24.06 24.05-.26 0-.53 0-.79-.02-12.92-.41-23.27-11.01-23.27-24.03s10.35-23.62 23.27-24.03c.26-.02.53-.02.79-.02 13.29 0 24.06 10.77 24.06 24.05z" fill="#fff"/><path d="m466.6 70.325c0 13.28-10.77 24.05-24.06 24.05-.26 0-.53 0-.79-.02 3.49-.41 6.29-11.01 6.29-24.03s-2.8-23.62-6.29-24.03c.26-.02.53-.02.79-.02 13.29 0 24.06 10.77 24.06 24.05z" fill="#eef0f5"/></g></g><g><path d="m37.895 365.598c0 17.396 14.156 31.549 31.555 31.549s31.555-14.153 31.555-31.549-14.155-31.548-31.555-31.548-31.555 14.152-31.555 31.548zm48.11 0c0 9.125-7.427 16.549-16.555 16.549s-16.555-7.424-16.555-16.549 7.427-16.548 16.555-16.548 16.555 7.423 16.555 16.548z"/><path d="m442.55 396.91c17.399 0 31.555-14.152 31.555-31.548s-14.156-31.549-31.555-31.549-31.555 14.153-31.555 31.549 14.155 31.548 31.555 31.548zm0-48.097c9.128 0 16.555 7.424 16.555 16.549s-7.427 16.548-16.555 16.548-16.555-7.423-16.555-16.548 7.426-16.549 16.555-16.549z"/><path d="m69.45 216.952c2.043 0 3.999-.834 5.413-2.309.662-.69 16.382-17.194 32.186-43.35 2.142-3.545 1.004-8.156-2.541-10.298s-8.156-1.004-10.297 2.541c-9.45 15.639-18.997 27.767-24.751 34.581-14.732-17.515-54.46-70.161-54.46-128.446 0-30.015 24.426-54.434 54.45-54.434s54.45 24.419 54.45 54.434c0 20.553-4.919 42.352-14.621 64.792-1.644 3.802.106 8.217 3.908 9.86 3.803 1.644 8.216-.106 9.86-3.908 10.519-24.33 15.852-48.132 15.852-70.744 0-38.286-31.155-69.434-69.45-69.434s-69.449 31.148-69.449 69.434c0 77.303 61.422 142.245 64.037 144.972 1.414 1.475 3.37 2.309 5.413 2.309z"/><path d="m69.45 295.286c-38.295 0-69.45 31.147-69.45 69.433 0 77.304 61.422 142.246 64.037 144.972 1.414 1.475 3.37 2.309 5.413 2.309s3.999-.834 5.413-2.309c.662-.69 16.382-17.195 32.186-43.35 2.143-3.545 1.005-8.156-2.54-10.298-3.547-2.144-8.157-1.005-10.298 2.54-9.45 15.639-18.997 27.767-24.751 34.582-14.732-17.515-54.46-70.161-54.46-128.446 0-30.015 24.426-54.433 54.45-54.433s54.45 24.418 54.45 54.433c0 20.553-4.919 42.352-14.621 64.792-1.644 3.802.106 8.216 3.908 9.86 3.803 1.644 8.216-.105 9.86-3.908 10.519-24.331 15.852-48.132 15.852-70.745.001-38.285-31.154-69.432-69.449-69.432z"/><path d="m37.895 70.55c0 17.396 14.156 31.548 31.555 31.548s31.555-14.152 31.555-31.548-14.155-31.549-31.555-31.549-31.555 14.153-31.555 31.549zm48.11 0c0 9.125-7.427 16.548-16.555 16.548s-16.555-7.423-16.555-16.548 7.427-16.549 16.555-16.549 16.555 7.424 16.555 16.549z"/><path d="m442.55 101.862c17.399 0 31.555-14.153 31.555-31.549s-14.156-31.549-31.555-31.549-31.555 14.153-31.555 31.549 14.155 31.549 31.555 31.549zm0-48.098c9.128 0 16.555 7.424 16.555 16.549s-7.427 16.549-16.555 16.549-16.555-7.424-16.555-16.549 7.426-16.549 16.555-16.549z"/><path d="m170.246 80.711h14.997c4.142 0 7.5-3.358 7.5-7.5s-3.358-7.5-7.5-7.5h-14.997c-4.142 0-7.5 3.358-7.5 7.5s3.358 7.5 7.5 7.5z"/><path d="m213.546 80.711h28.309c4.142 0 7.5-3.358 7.5-7.5s-3.358-7.5-7.5-7.5h-28.309c-4.142 0-7.5 3.358-7.5 7.5s3.358 7.5 7.5 7.5z"/><path d="m270.164 80.711h28.309c4.142 0 7.5-3.358 7.5-7.5s-3.358-7.5-7.5-7.5h-28.309c-4.142 0-7.5 3.358-7.5 7.5s3.357 7.5 7.5 7.5z"/><path d="m341.754 65.711h-14.997c-4.142 0-7.5 3.358-7.5 7.5s3.358 7.5 7.5 7.5h14.997c4.142 0 7.5-3.358 7.5-7.5s-3.358-7.5-7.5-7.5z"/><path d="m185.243 431.526h-14.997c-4.142 0-7.5 3.358-7.5 7.5s3.358 7.5 7.5 7.5h14.997c4.142 0 7.5-3.358 7.5-7.5s-3.358-7.5-7.5-7.5z"/><path d="m241.854 431.526h-28.309c-4.142 0-7.5 3.358-7.5 7.5s3.358 7.5 7.5 7.5h28.309c4.142 0 7.5-3.358 7.5-7.5s-3.357-7.5-7.5-7.5z"/><path d="m298.472 431.526h-28.309c-4.142 0-7.5 3.358-7.5 7.5s3.358 7.5 7.5 7.5h28.309c4.142 0 7.5-3.358 7.5-7.5s-3.358-7.5-7.5-7.5z"/><path d="m341.754 431.526h-14.997c-4.142 0-7.5 3.358-7.5 7.5s3.358 7.5 7.5 7.5h14.997c4.142 0 7.5-3.358 7.5-7.5s-3.358-7.5-7.5-7.5z"/><path d="m403.251 257.924c0-4.142-3.358-7.5-7.5-7.5h-31.049c-4.142 0-7.5 3.358-7.5 7.5s3.358 7.5 7.5 7.5h31.049c4.143 0 7.5-3.358 7.5-7.5z"/><path d="m240.504 250.424c-4.142 0-7.5 3.358-7.5 7.5s3.358 7.5 7.5 7.5h31.049c4.142 0 7.5-3.358 7.5-7.5s-3.358-7.5-7.5-7.5z"/><path d="m178.406 250.424c-4.142 0-7.5 3.358-7.5 7.5s3.358 7.5 7.5 7.5h31.049c4.142 0 7.5-3.358 7.5-7.5s-3.358-7.5-7.5-7.5z"/><path d="m295.104 257.924c0 4.142 3.358 7.5 7.5 7.5h31.049c4.142 0 7.5-3.358 7.5-7.5s-3.358-7.5-7.5-7.5h-31.049c-4.143 0-7.5 3.358-7.5 7.5z"/><path d="m147.356 250.424h-31.049c-4.142 0-7.5 3.358-7.5 7.5s3.358 7.5 7.5 7.5h31.049c4.142 0 7.5-3.358 7.5-7.5s-3.358-7.5-7.5-7.5z"/><path d="m70.267 233.052c-4.142 0-7.5 3.358-7.5 7.5v17.372c0 4.142 3.358 7.5 7.5 7.5h14.997c4.142 0 7.5-3.358 7.5-7.5s-3.358-7.5-7.5-7.5h-7.497v-9.872c0-4.142-3.358-7.5-7.5-7.5z"/><path d="m441.733 282.795c4.142 0 7.5-3.358 7.5-7.5v-17.371c0-4.142-3.358-7.5-7.5-7.5h-14.997c-4.142 0-7.5 3.358-7.5 7.5s3.358 7.5 7.5 7.5h7.497v9.871c0 4.142 3.358 7.5 7.5 7.5z"/><path d="m442.55 295.048c-38.295 0-69.45 31.147-69.45 69.433 0 22.612 5.333 46.414 15.852 70.745 1.644 3.802 6.059 5.552 9.86 3.908 3.802-1.644 5.552-6.059 3.908-9.86-9.702-22.44-14.621-44.24-14.621-64.792 0-30.015 24.426-54.433 54.45-54.433s54.451 24.418 54.451 54.432c0 58.29-39.732 110.938-54.46 128.447-5.755-6.816-15.302-18.944-24.751-34.582-2.142-3.545-6.752-4.684-10.297-2.541-3.545 2.142-4.683 6.752-2.541 10.297 15.804 26.156 31.524 42.66 32.186 43.35 1.415 1.475 3.37 2.309 5.413 2.309s3.999-.834 5.413-2.309c2.615-2.725 64.037-67.667 64.037-144.971 0-38.285-31.155-69.433-69.45-69.433z"/><path d="m398.813 144.086c3.802-1.644 5.552-6.059 3.908-9.86-9.702-22.44-14.621-44.239-14.621-64.792 0-30.015 24.426-54.434 54.45-54.434s54.45 24.419 54.45 54.434c0 58.289-39.732 110.937-54.46 128.446-5.755-6.816-15.302-18.944-24.751-34.582-2.142-3.545-6.752-4.682-10.297-2.541-3.545 2.142-4.683 6.753-2.541 10.298 15.804 26.156 31.524 42.66 32.186 43.35 1.415 1.475 3.37 2.309 5.413 2.309s3.999-.834 5.413-2.309c2.615-2.726 64.037-67.668 64.037-144.971 0-38.286-31.155-69.434-69.45-69.434s-69.45 31.148-69.45 69.434c0 22.612 5.333 46.414 15.852 70.744 1.644 3.801 6.059 5.551 9.861 3.908z"/></g></svg>